# xmcd
#
# Track frame offsets: 
#        150
#        20652
#        35502
#        42505
#        63677
#        77455
#        105315
#        130840
#        167667
#        172110
#        207630
#        225545
#        242565
#        257962
#
# Disc length: 3602 seconds
#
# Revision: 0
# Processed by: cddbd v1.5.1PL0 Copyright (c) Steve Scherf et al.
# Submitted via: ExactAudioCopy v0.95b2
#
DISCID=c00e100e
DTITLE=Guns N' Roses - Winchester
DYEAR=1992
DGENRE=Grunge
TTITLE0=Whole Lotta Rosie
TTITLE1=Live And Let Die
TTITLE2=Attitude
TTITLE3=Always On The Run
TTITLE4=Wild Horses (acoustic version)
TTITLE5=Passion
TTITLE6=Bohemian Rhapsody
TTITLE7=Godfather Theme (instrumental)
TTITLE8=Sail Away Sweet Sister
TTITLE9=Sweet Child O' Mine
TTITLE10=Mama Kin
TTITLE11=Train Kept A Rollin'
TTITLE12=Jumping Jack Flash
TTITLE13=We Will Rock You
EXTD=
EXTT0=
EXTT1=
EXTT2=
EXTT3=
EXTT4=
EXTT5=
EXTT6=
EXTT7=
EXTT8=
EXTT9=
EXTT10=
EXTT11=
EXTT12=
EXTT13=
PLAYORDER=
